<svg xmlns="http://www.w3.org/2000/svg" viewBox="0 0 100 100">
  <rect width="100" height="100" fill="#09090b"/>

  <!-- Bar 1 (left, 2 segments) -->
  <rect x="8"  y="64" width="24" height="11" rx="3" fill="#c2410c"/>
  <rect x="8"  y="77" width="24" height="11" rx="3" fill="#b91c1c"/>

  <!-- Bar 2 (middle, 4 segments) -->
  <rect x="38" y="38" width="24" height="11" rx="3" fill="#f97316"/>
  <rect x="38" y="51" width="24" height="11" rx="3" fill="#ea580c"/>
  <rect x="38" y="64" width="24" height="11" rx="3" fill="#c2410c"/>
  <rect x="38" y="77" width="24" height="11" rx="3" fill="#b91c1c"/>

  <!-- Bar 3 (right, 6 segments) -->
  <rect x="68" y="12" width="24" height="11" rx="3" fill="#fde047"/>
  <rect x="68" y="25" width="24" height="11" rx="3" fill="#fbbf24"/>
  <rect x="68" y="38" width="24" height="11" rx="3" fill="#f97316"/>
  <rect x="68" y="51" width="24" height="11" rx="3" fill="#ea580c"/>
  <rect x="68" y="64" width="24" height="11" rx="3" fill="#c2410c"/>
  <rect x="68" y="77" width="24" height="11" rx="3" fill="#b91c1c"/>
</svg>
